# xmcd CD database file
#
# Track frame offsets:
#	150
#	16541
#	33329
#	55931
#	78731
#	98413
#	111376
#	136442
#	156909
#	179318
#	192775
#	209781
#	225056
#	249730
#
# Disc length: 3607 seconds
#
# Revision: 0
# Processed by: cddbd v1.5.1PL0 Copyright (c) Steve Scherf et al.
# Submitted via: CDex 1.51
#
DISCID=b20e150e
DTITLE=Floyd Standifer and the Pampas Quartet - Scotch And Soda
DYEAR=2005
DGENRE=Jazz
TTITLE0=Blue Capers
TTITLE1=Stompin' At The Savoy
TTITLE2=You've Changed
TTITLE3=What Is This Thing Called Love
TTITLE4=Scotch And Soda
TTITLE5=It Don't Mean A Thing
TTITLE6=Tenderly
TTITLE7=Satin Doll
TTITLE8=Cantaloupe Island
TTITLE9=It Could Happen To You
TTITLE10=Take The "A" Train
TTITLE11=You Don't Know What Love Is
TTITLE12=Don't Worry 'bout Me
TTITLE13=Robbins Nest
EXTD=YEAR: 2005
EXTT0=
EXTT1=
EXTT2=
EXTT3=
EXTT4=
EXTT5=
EXTT6=
EXTT7=
EXTT8=
EXTT9=
EXTT10=
EXTT11=
EXTT12=
EXTT13=
PLAYORDER=
